<svg id="svg" version="1.1" width="559.9999999999999" height="161.9391862682083" viewBox="33.81665438899456 201.05983134680238 441.18334561100545 127.58012854166421" xmlns="http://www.w3.org/2000/svg" xmlns:xlink="http://www.w3.org/1999/xlink" class="style-removed" preserveAspectRatio="none" data-parent="shape_Bj1dQ3FebD"><path d="M234.355 201.992 C 229.610 203.907,226.045 210.721,212.902 243.000 C 207.344 256.650,205.866 259.444,204.342 259.174 C 183.478 255.479,173.032 261.905,157.485 288.000 C 151.267 298.436,143.533 307.106,137.790 310.079 C 133.174 312.469,131.749 312.485,129.655 310.171 C 126.034 306.170,129.056 294.412,138.140 277.150 C 141.425 270.908,143.975 264.842,143.806 263.670 C 143.351 260.505,138.831 259.225,135.595 261.346 C 132.128 263.618,124.730 276.506,121.041 286.701 C 115.300 302.567,115.262 312.165,120.922 317.222 C 127.275 322.898,137.615 320.023,148.128 309.660 L 153.756 304.111 154.234 309.088 C 155.058 317.661,161.441 321.682,170.106 319.086 C 174.827 317.672,184.831 308.585,191.013 300.096 C 193.427 296.781,195.499 294.166,195.619 294.286 C 195.738 294.405,195.198 296.963,194.418 299.969 C 191.732 310.324,193.238 316.613,198.972 318.988 C 206.538 322.122,216.050 317.509,225.657 306.048 C 234.808 295.130,237.355 288.000,232.105 288.000 C 230.769 288.000,229.102 289.827,226.860 293.750 C 221.096 303.832,213.270 311.000,208.025 311.000 C 198.746 311.000,208.201 278.930,232.446 228.165 C 237.701 217.162,242.000 207.249,242.000 206.137 C 242.000 205.024,241.000 203.413,239.777 202.557 C 237.274 200.803,237.296 200.806,234.355 201.992 M266.880 202.380 C 257.428 204.927,248.264 212.574,243.621 221.787 C 238.812 231.330,238.936 238.902,243.934 240.973 C 246.084 241.863,247.351 241.882,248.909 241.049 C 250.714 240.083,251.000 239.004,251.000 233.161 C 251.000 227.853,251.569 225.251,253.635 221.105 C 256.847 214.660,262.773 210.000,267.758 210.000 C 271.025 210.000,271.180 210.152,270.554 212.750 C 268.184 222.588,239.165 308.045,235.895 314.816 C 233.686 319.390,232.022 323.890,232.198 324.816 C 232.710 327.518,239.953 327.611,243.324 324.960 C 247.139 321.959,247.881 320.183,255.531 295.758 L 262.340 274.015 266.804 282.258 C 275.635 298.564,290.203 318.936,297.836 325.653 C 302.095 329.401,309.279 329.661,313.250 326.211 C 316.265 323.591,315.308 321.260,309.750 317.684 C 300.339 311.630,291.704 301.639,277.185 280.007 C 268.643 267.281,268.223 266.411,269.781 264.689 C 270.690 263.685,277.974 257.616,285.967 251.202 C 318.286 225.270,330.488 209.277,323.074 202.567 C 319.915 199.708,317.791 201.057,314.026 208.315 C 312.087 212.054,308.475 217.624,306.000 220.692 C 302.449 225.094,281.688 244.701,269.470 255.191 C 267.915 256.526,268.937 252.523,274.321 236.191 C 278.072 224.811,281.390 213.214,281.693 210.419 C 282.200 205.750,282.021 205.162,279.488 203.169 C 276.395 200.737,273.622 200.563,266.880 202.380 M466.297 202.014 C 462.054 203.722,455.300 217.002,443.053 247.719 L 437.783 260.939 434.941 259.469 C 433.378 258.661,429.449 258.000,426.209 258.000 C 413.637 258.000,401.044 268.133,390.743 286.538 C 380.102 305.552,365.956 317.462,363.120 309.795 C 361.844 306.346,363.489 301.145,370.066 287.832 C 377.007 273.782,377.384 270.098,372.415 264.912 C 363.554 255.663,346.162 259.664,332.562 274.082 C 325.235 281.848,321.638 287.559,318.329 296.676 C 314.147 308.196,315.963 316.773,323.348 320.379 C 326.712 322.022,327.714 322.103,331.325 321.021 C 336.782 319.386,342.743 315.193,348.120 309.207 L 352.500 304.331 352.160 309.621 C 351.866 314.203,352.161 315.252,354.365 317.455 C 356.373 319.464,357.905 320.000,361.639 320.000 C 367.994 320.000,373.735 317.048,380.462 310.320 C 385.717 305.066,386.000 304.918,386.000 307.423 C 386.000 317.520,395.485 322.898,404.790 318.078 C 408.866 315.967,417.427 307.476,423.866 299.160 C 426.140 296.223,427.995 293.973,427.989 294.160 C 427.983 294.347,427.308 296.709,426.489 299.409 C 425.670 302.109,425.000 306.531,425.000 309.236 C 425.000 313.338,425.485 314.639,427.923 317.077 C 435.752 324.906,450.367 317.227,462.585 298.866 C 467.264 291.835,467.814 289.920,465.668 288.139 C 463.849 286.630,462.073 288.177,457.794 295.000 C 453.447 301.929,445.634 309.803,442.265 310.648 C 440.849 311.004,438.973 310.829,438.095 310.260 C 432.190 306.432,444.022 270.266,465.144 227.584 C 470.565 216.630,475.000 206.868,475.000 205.890 C 475.000 204.097,471.428 200.946,469.527 201.063 C 468.962 201.098,467.509 201.526,466.297 202.014 M85.124 203.518 C 71.095 207.447,58.964 217.041,53.548 228.490 C 48.437 239.294,48.358 247.817,53.293 256.236 C 56.932 262.446,62.287 266.969,74.293 273.973 C 91.035 283.739,96.918 290.133,96.978 298.628 C 97.033 306.436,89.383 315.281,79.935 318.332 C 72.526 320.725,61.725 320.529,56.302 317.904 C 45.354 312.604,43.781 296.353,53.094 284.742 C 56.611 280.356,56.209 279.000,51.391 279.000 C 34.711 279.000,27.440 306.228,40.603 319.399 C 50.203 329.004,72.735 330.950,88.695 323.551 C 99.983 318.318,107.905 308.101,108.730 297.710 C 109.917 282.758,103.703 274.616,81.518 262.062 C 62.317 251.197,58.016 241.000,66.495 226.442 C 73.523 214.377,91.069 205.881,99.720 210.355 C 105.572 213.381,105.424 216.904,98.884 230.357 C 93.039 242.378,91.721 248.929,94.522 252.025 C 97.256 255.046,101.809 254.634,103.093 251.250 C 103.666 249.738,106.318 243.325,108.985 237.000 C 114.897 222.979,115.792 218.019,113.461 212.193 C 110.120 203.844,97.620 200.017,85.124 203.518 M146.367 235.918 C 139.824 239.908,137.750 247.018,142.497 249.181 C 149.889 252.549,163.089 240.489,157.800 235.200 C 155.985 233.385,149.893 233.768,146.367 235.918 M201.898 265.916 C 203.082 266.665,203.033 267.469,201.583 271.151 C 198.117 279.947,188.021 295.543,180.164 304.240 C 169.261 316.308,161.516 311.440,166.868 295.884 C 171.579 282.190,179.219 271.565,187.219 267.578 C 192.440 264.976,199.205 264.210,201.898 265.916 M433.898 265.916 C 435.679 267.043,433.715 272.353,427.764 282.500 C 413.518 306.790,399.569 317.881,397.453 306.601 C 395.425 295.789,409.905 271.426,421.305 266.468 C 424.928 264.892,431.805 264.591,433.898 265.916 M364.273 270.226 C 366.379 272.663,365.954 274.559,361.748 281.492 C 353.378 295.292,340.873 309.409,334.225 312.564 C 330.838 314.171,330.593 314.164,329.330 312.437 C 324.224 305.454,335.282 280.621,347.164 272.386 C 351.919 269.091,357.929 266.952,360.500 267.639 C 361.600 267.933,363.298 269.097,364.273 270.226 " stroke="none" fill="#000000" fill-rule="evenodd" stroke-width="0"></path></svg>